<svg width="24" height="25" viewBox="0 0 24 25" fill="none" xmlns="http://www.w3.org/2000/svg">
<g id="Iconly/Bulk/Folder">
<g id="Folder">
<path id="Folder 2" opacity="0.4" d="M16.8843 5.61485H13.9413C13.2081 5.61969 12.512 5.29355 12.0474 4.72751L11.0782 3.38762C10.6214 2.81661 9.9253 2.48894 9.19321 2.50028H7.11261C3.37819 2.50028 2.00001 4.69201 2.00001 8.41884V12.4474C1.99536 12.8904 21.9956 12.8898 21.9969 12.4474V11.2761C22.0147 7.54924 20.6721 5.61485 16.8843 5.61485Z" fill="white"/>
<path id="Folder_2" fill-rule="evenodd" clip-rule="evenodd" d="M20.8321 7.04346C21.1521 7.41754 21.3993 7.84785 21.5612 8.31236C21.8798 9.26704 22.0273 10.2703 21.9969 11.2761V16.5291C21.9956 16.9716 21.963 17.4134 21.8991 17.8513C21.7775 18.624 21.5057 19.3655 21.0989 20.0341C20.9119 20.3571 20.6849 20.6552 20.4231 20.9214C19.2383 22.0089 17.665 22.5749 16.0574 22.492H7.93061C6.32049 22.5743 4.74461 22.0085 3.55601 20.9214C3.2974 20.6547 3.07337 20.3566 2.88915 20.0341C2.48475 19.366 2.21869 18.6237 2.1067 17.8513C2.03549 17.4141 1.99981 16.972 2 16.5291V11.2761C1.99983 10.8374 2.02357 10.3989 2.07113 9.96281C2.08113 9.88629 2.09614 9.81101 2.11098 9.73652C2.13573 9.61233 2.16005 9.49031 2.16005 9.36829C2.25031 8.84196 2.41496 8.33109 2.64908 7.85094C3.34261 6.36908 4.76525 5.61484 7.09481 5.61484H16.8754C18.1802 5.51393 19.4753 5.90673 20.5032 6.71515C20.6215 6.81552 20.7316 6.92532 20.8321 7.04346ZM6.97033 16.0411H17.0355H17.0533C17.2741 16.0507 17.4896 15.9716 17.6517 15.8216C17.8137 15.6715 17.9088 15.463 17.9157 15.2425C17.9282 15.0487 17.8644 14.8576 17.7379 14.7101C17.5924 14.5118 17.3618 14.3934 17.1155 14.3906H6.97033C6.51365 14.3906 6.14343 14.7601 6.14343 15.2159C6.14343 15.6716 6.51365 16.0411 6.97033 16.0411Z" fill="white"/>
</g>
</g>
</svg>
