<svg width="20" height="17" viewBox="0 0 20 17" fill="none" xmlns="http://www.w3.org/2000/svg">
<path d="M16.2357 6.02663L12.1785 11.6426L19.0707 12.3483L16.2357 6.02663ZM7.18449 1.34314C7.50419 1.25595 7.69267 0.926109 7.60548 0.606414C7.51829 0.28672 7.18844 0.0982374 6.86875 0.185427L7.18449 1.34314ZM15.1509 11.1268C14.2985 12.8023 12.7706 14.1237 10.8155 14.6569L11.1313 15.8146C13.4264 15.1886 15.2211 13.6354 16.2205 11.671L15.1509 11.1268ZM10.8155 14.6569C7.13903 15.6596 3.34582 13.492 2.34314 9.81553L1.18542 10.1313C2.36248 14.4471 6.81539 16.9917 11.1313 15.8146L10.8155 14.6569ZM2.34314 9.81553C1.34046 6.13904 3.508 2.34582 7.18449 1.34314L6.86875 0.185427C2.55287 1.36249 0.00836054 5.81539 1.18542 10.1313L2.34314 9.81553Z" fill="white"/>
</svg>
